<?xml version="1.0" encoding="iso-8859-1"?>
<!-- Generator: Adobe Illustrator 25.0.1, SVG Export Plug-In . SVG Version: 6.00 Build 0)  -->
<svg version="1.1" id="&#xD1;&#xEB;&#xEE;&#xE9;_1" xmlns="http://www.w3.org/2000/svg" xmlns:xlink="http://www.w3.org/1999/xlink"
	 x="0px" y="0px" viewBox="0 0 1000 1000" style="enable-background:new 0 0 1000 1000;" xml:space="preserve">
<rect id="XMLID_67_" style="display:none;" width="1000" height="1000"/>
<g id="XMLID_3101_">
	<path id="XMLID_3104_" style="fill:#FFFFFF;" d="M452.119,557.376c0.908,0.278,1.89,0.178,2.722-0.283
		c2.346-1.297,4.914-2.586,7.627-3.828l10.031-4.57l-0.832,10.734c-0.007,0.095-0.011,0.189-0.01,0.284
		c0.043,11.378,4.082,22.413,11.368,31.066l1.522,1.815v25.387c0,1.061,0.481,2.065,1.309,2.729l9.631,7.731
		c21.539,17.279,43.059,34.559,64.588,51.849c0.633,0.509,1.409,0.771,2.192,0.771c0.514,0,1.031-0.113,1.513-0.344
		c1.214-0.582,1.987-1.809,1.987-3.156v-48.43c0-1.933-1.567-3.5-3.5-3.5h-6.474l-0.026-32.748l1.368-1.912l0.162-0.189
		c7.326-8.716,11.361-19.786,11.361-31.172c0-0.632-0.022-1.266-0.057-1.909l-0.317-5.291l5.249-1.333
		c6.89-1.715,13.688-3.749,20.214-6.047l1.043-0.37h0.949c0.039,0,0.077,0,0.115-0.002c2.273-0.075,4.512-0.178,7.066-0.324
		c8.963-0.566,18.363-2.172,27.183-4.643c0.254-0.071,0.5-0.171,0.732-0.298c17.908-9.771,34.483-21.905,49.265-36.064
		c0.998-0.955,1.34-2.407,0.874-3.707c-0.465-1.3-1.651-2.205-3.028-2.31l-226.621-17.304
		c-36.207-2.773-73.647-5.641-109.152-17.225c-3.639-1.186-7.179-2.448-10.523-3.752c-1.424-0.555-3.041-0.124-3.999,1.066
		c-0.957,1.19-1.033,2.863-0.187,4.134C357.047,508.686,401.317,541.766,452.119,557.376z M340.001,469.437
		c36.302,11.845,74.168,14.745,110.839,17.553l218.568,16.689c-12.714,11.346-26.667,21.206-41.578,29.377
		c-8.245,2.281-17.002,3.764-25.334,4.29c-2.454,0.141-4.622,0.241-6.817,0.313h-1.493c-0.398,0-0.794,0.068-1.169,0.201
		l-1.604,0.568c-6.312,2.224-12.896,4.194-19.589,5.859l-8.07,2.05c-1.628,0.413-2.733,1.925-2.632,3.601l0.488,8.16
		c0.027,0.498,0.045,1.005,0.045,1.511c0,9.74-3.452,19.211-9.697,26.642l-0.24,0.28c-0.067,0.078-0.13,0.159-0.189,0.242
		l-2.11,2.95c-0.425,0.594-0.653,1.306-0.653,2.036v27.344l0.04,10.04c0.008,1.927,1.572,3.486,3.5,3.486h6.46v37.63
		c-19.631-15.765-39.258-31.523-58.899-47.279l-8.321-6.68V591.32c0-0.823-0.29-1.619-0.818-2.249l-2.344-2.795
		c-6.206-7.37-9.657-16.759-9.726-26.45l1.279-16.504c0.096-1.235-0.469-2.429-1.484-3.139c-1.015-0.709-2.329-0.83-3.457-0.317
		l-15.436,7.032c-2.38,1.089-4.656,2.214-6.786,3.352c-45.215-14.221-85.005-42.742-113.214-80.956
		C339.707,469.341,339.854,469.389,340.001,469.437z"/>
	<path id="XMLID_3107_" style="fill:#FFFFFF;" d="M576.972,775.827c-0.841-0.179-1.72-0.04-2.468,0.388
		c-3.124,1.793-6.504,3.344-10.044,4.608l-8.694,3.102v-43.885c0-1.326-0.75-2.538-1.936-3.131
		c-10.29-5.141-21.513-10.112-32.366-14.919l-0.101-0.044c-14.18-6.286-28.843-12.786-41.7-19.753
		c-1.083-0.587-2.394-0.562-3.452,0.066c-1.059,0.628-1.711,1.766-1.715,2.997l-0.15,37.37c-0.004,0.931,0.363,1.825,1.02,2.484
		c0.657,0.66,1.549,1.03,2.48,1.03h6.504l-0.178,39.264l-6.36,0.117c-13.33,0.244-23.924,1.128-34.354,2.868
		c-18.337,3.07-37.821,8.193-57.909,15.229c-0.343,0.12-0.668,0.296-0.959,0.517c-7.496,5.466-14.004,11.734-19.897,19.161
		c-0.835,1.052-0.994,2.489-0.409,3.698c0.584,1.209,1.809,1.977,3.151,1.977h305.44c1.343,0,2.567-0.768,3.152-1.978
		c0.584-1.21,0.424-2.646-0.411-3.698C650.262,791.354,614.662,783.812,576.972,775.827z M375.032,821.97
		c4.079-4.417,8.482-8.353,13.328-11.92c19.537-6.814,38.461-11.779,56.253-14.757c10.076-1.681,20.354-2.536,33.328-2.773
		l9.78-0.18c1.901-0.035,3.427-1.582,3.435-3.483l0.21-46.2c0.004-0.931-0.363-1.826-1.02-2.485c-0.657-0.66-1.549-1.031-2.48-1.031
		h-6.506l0.112-28.075c11.762,6.068,24.592,11.755,37.054,17.28l0.102,0.045c10.099,4.473,20.521,9.089,30.138,13.822v46.678
		c0,1.138,0.553,2.205,1.483,2.861c0.931,0.656,2.121,0.818,3.193,0.435l13.372-4.771c3.491-1.247,6.846-2.748,9.994-4.468
		c34.94,7.405,65.435,14.109,88.466,39.023H375.032z"/>
	<path id="XMLID_3110_" style="fill:#FFFFFF;" d="M328.12,312.523c-0.245,0.775-0.475,1.588-0.746,2.648
		c-2.353,9.295-2.195,18.211,0.472,26.501c4.894,15.207,18.388,28.393,37.022,36.177c17.401,7.267,36.918,9.384,55.793,11.431
		l1.566,0.169c72.618,7.843,145.246,15.687,217.864,23.541c22.825,2.464,46.428,5.011,68.539,14.028
		c5.755,2.357,11.237,5.142,16.292,8.276c0.56,0.347,1.199,0.525,1.844,0.525c0.335,0,0.672-0.048,1-0.146
		c0.959-0.286,1.749-0.969,2.172-1.875c14.278-30.634,21.518-63.444,21.518-97.519v-22.7c0-1.933-1.567-3.5-3.5-3.5h-416.5
		C329.931,310.08,328.581,311.069,328.12,312.523z M334.112,317.08h410.345v19.2c0,31.742-6.475,62.347-19.255,91.036
		c-4.408-2.518-9.075-4.79-13.923-6.776c-23.028-9.391-47.129-11.993-70.436-14.508c-72.618-7.854-145.246-15.698-217.864-23.541
		l-1.564-0.169c-18.379-1.993-37.383-4.055-53.849-10.931c-16.742-6.994-28.791-18.607-33.057-31.862
		C332.268,332.562,332.136,325.007,334.112,317.08z"/>
	<path id="XMLID_3113_" style="fill:#FFFFFF;" d="M757.603,477.6c-5.527-15.43-17.082-29.001-33.408-39.241
		c-5.23-3.297-10.847-6.177-16.695-8.56c-21.708-8.854-45.107-11.383-67.735-13.829c-66.391-7.181-132.791-14.353-199.184-21.523
		l-20.245-2.186c-19.086-2.069-38.822-4.208-56.627-11.64c-19.442-8.13-33.554-21.993-38.718-38.031
		c-2.836-8.83-3.014-18.302-0.529-28.153c3.909-15.487,14.07-30.309,27.876-40.666c11.979-8.982,26.463-15.517,46.96-21.186
		c4.644-1.28,9.452-1.65,14.543-2.041c2.995-0.23,6.091-0.468,9.157-0.907c0.702-0.101,1.414,0.109,1.954,0.573
		c0.29,0.249,0.777,0.794,0.787,1.651c0.114,10.372,5.482,19.252,15.524,25.679c31.641,20.245,70.208,41.725,87.75,28.01
		c0.043-0.034,0.084-0.068,0.126-0.103c0.015-0.013,0.03-0.026,0.045-0.039c16.657-14.785,2.473-56.591-11.746-91.362
		c-9.614-23.497-30.542-25.661-46.165-20.268c-1.677-9.303-10.588-13.426-17.816-16.771c-0.854-0.395-1.7-0.787-2.528-1.183
		c-16.887-8.07-37.884-4.566-58.057,0.419c-20.967,5.165-42.637,13.234-66.249,24.668l-2.775,1.341
		c-13.471,6.501-28.739,13.868-39.858,24.589c-21.875,21.088-37.112,49.554-42.904,80.152c-6.011,31.761-1.076,63.05,13.898,88.103
		h0.001c13.728,22.964,36.176,42.219,64.917,55.683c7.354,3.449,15.16,6.527,23.201,9.148
		c35.182,11.48,72.454,14.333,108.499,17.093l228.597,17.46c1.195,0.092,2.318,0.51,3.269,1.224c2.103,1.556,3.429,4.71,1.892,7.728
		c-15.037,29.529-53.722,42.102-82.273,43.895c-2.35,0.143-4.737,0.252-7.296,0.335c-0.184,0.006-0.368,0.026-0.548,0.061
		c-0.173,0.033-0.345,0.079-0.511,0.138c-6.682,2.352-13.561,4.41-20.406,6.106c-1.633,0.384-2.791,1.909-2.723,3.585
		c0.028,0.683,0.056,1.367,0.056,2.059c0,12.091-4.283,23.846-12.054,33.089c-0.535,0.632-0.836,1.456-0.836,2.283v24.11
		c0,0.957,0.403,1.898,1.096,2.559c0.653,0.622,1.543,0.977,2.444,0.977c0.04,0,0.081-0.001,0.121-0.002
		c57.864-2.046,101.983-13.029,138.846-34.565C740.685,565.018,772.689,519.676,757.603,477.6z M697.742,582.018
		c-35.056,20.48-77.053,31.146-131.974,33.473v-19.267c8.221-10.23,12.78-22.996,12.888-36.137
		c6.027-1.571,12.032-3.398,17.894-5.447c2.426-0.083,4.708-0.19,6.967-0.327c17.988-1.13,36.111-5.837,51.031-13.254
		c17.086-8.494,29.897-20.407,37.049-34.451c2.914-5.724,1.245-12.676-3.946-16.516c-1.996-1.5-4.386-2.397-6.917-2.592
		l-228.6-17.46c-35.633-2.727-72.479-5.548-106.862-16.768c-7.77-2.533-15.306-5.504-22.4-8.832
		c-27.474-12.87-48.872-31.175-61.88-52.936c-28.232-47.235-15.997-117.351,27.855-159.625
		c10.312-9.943,25.043-17.052,38.041-23.324l2.785-1.346c23.166-11.218,44.386-19.124,64.875-24.172
		c18.91-4.675,38.463-8.019,53.359-0.901c0.853,0.408,1.727,0.812,2.608,1.22c8.083,3.741,13.422,6.632,13.983,12.506
		c0.184,1.922,1.175,3.574,2.718,4.532c1.518,0.942,3.398,1.098,5.158,0.427c13.418-5.12,30.6-3.64,38.584,15.872
		c7.076,17.305,28.583,69.902,13.657,83.405c-15.968,12.244-63.833-18.382-79.581-28.457c-8.072-5.167-12.209-11.848-12.297-19.86
		c-0.029-2.639-1.205-5.147-3.225-6.883c-2.067-1.775-4.798-2.576-7.501-2.194c-2.846,0.408-5.693,0.627-8.707,0.858
		c-5.198,0.399-10.572,0.812-15.87,2.273c-21.382,5.915-36.585,12.803-49.297,22.334c-15.066,11.301-26.169,27.541-30.463,44.554
		c-2.811,11.141-2.592,21.91,0.652,32.009c5.793,17.991,21.349,33.426,42.684,42.347c18.741,7.823,38.99,10.017,58.572,12.14
		l20.247,2.187c66.392,7.171,132.792,14.343,199.183,21.523c22.146,2.393,45.047,4.869,65.845,13.351
		c5.47,2.229,10.72,4.921,15.611,8.004c10.453,6.556,24.237,18.067,30.546,35.676C764.811,518.446,734.658,560.434,697.742,582.018z
		"/>
	<path id="XMLID_3116_" style="fill:#FFFFFF;" d="M558.772,774.701c0,1.138,0.553,2.205,1.484,2.861
		c0.598,0.421,1.304,0.639,2.017,0.639c0.396,0,0.794-0.067,1.176-0.204c18.448-6.587,31.48-21.047,33.202-36.836
		c2.413-22.067-14.903-39.412-32.162-53.469c-0.551-0.451-1.101-0.894-1.651-1.336l-0.204-0.164
		c-23.529-18.894-47.059-37.78-70.595-56.672l-11.699-9.391c0.742-0.642,1.212-1.59,1.212-2.648v-22.51
		c0-0.824-0.291-1.622-0.821-2.253c-7.782-9.253-12.068-21.011-12.068-33.107l0.002-0.186c0.086-1.231-0.483-2.417-1.498-3.121
		c-1.015-0.703-2.323-0.82-3.447-0.308c-25.919,11.828-54.474,38.046-49.643,73.014c4.391,31.728,33.943,52.143,62.269,67.925
		c1.279,0.715,2.548,1.42,3.817,2.115c12.999,7.112,28.006,13.762,42.519,20.192c12.22,5.415,24.834,11.004,36.124,16.819
		c-0.021,0.153-0.031,0.31-0.031,0.468V774.701z M525.515,712.843c-14.381-6.373-29.252-12.961-41.993-19.933
		c-1.251-0.685-2.502-1.38-3.767-2.088c-26.822-14.945-54.777-34.09-58.746-62.771c-4.018-29.09,18.546-51.683,40.874-63.365
		c1.006,11.498,5.409,22.506,12.668,31.538v18.776c-0.963,0.675-1.715,1.651-2.131,2.841c-0.817,2.336-0.095,4.843,1.843,6.388
		l13.394,10.748c23.536,18.892,47.064,37.778,70.591,56.669l0.202,0.163c0.534,0.43,1.069,0.86,1.604,1.298
		c0.002,0.002,0.005,0.004,0.008,0.006c15.801,12.869,31.679,28.55,29.63,47.287c-1.521,13.954-12.977,23.894-23.92,29.065v-31.063
		c0.542-0.626,0.923-1.398,1.082-2.262c0.376-2.04-0.594-4.054-2.418-5.033c-0.105-0.059-0.212-0.114-0.319-0.17l-0.125-0.065
		c-0.031-0.018-0.063-0.035-0.095-0.052C551.944,724.554,538.508,718.6,525.515,712.843z"/>
	<path id="XMLID_3119_" style="fill:#FFFFFF;" d="M477.764,782.52c1.902-0.034,3.429-1.582,3.437-3.485l0.11-26.01
		c0.004-1.091-0.5-2.122-1.365-2.788c-0.866-0.666-1.992-0.891-3.045-0.606c-52.71,14.186-102.284,36.609-147.342,66.648
		c-1.532,1.021-2.011,3.055-1.095,4.652c0.643,1.123,1.821,1.76,3.039,1.76c0.515,0,1.037-0.114,1.528-0.353
		c26.493-12.883,67.069-29.744,109.927-36.905C453.542,783.662,464.276,782.763,477.764,782.52z M378.005,795.688
		c30.538-15.981,62.753-28.729,96.287-38.084l-0.076,17.995c-12.275,0.334-22.392,1.253-32.412,2.93
		C419.356,782.28,397.551,788.627,378.005,795.688z"/>
</g>
</svg>
