<?xml version="1.0" encoding="iso-8859-1"?>
<!-- Generator: Adobe Illustrator 25.0.1, SVG Export Plug-In . SVG Version: 6.00 Build 0)  -->
<svg version="1.1" id="&#xD1;&#xEB;&#xEE;&#xE9;_1" xmlns="http://www.w3.org/2000/svg" xmlns:xlink="http://www.w3.org/1999/xlink" 
	 x="0px" y="0px" viewBox="0 0 1000 1000" style="enable-background:new 0 0 1000 1000;" xml:space="preserve">
<rect id="XMLID_1166_" style="display:none;" width="1000" height="1000"/>
<g id="XMLID_427_">
	<path id="XMLID_428_" style="fill:#FFFFFF;" d="M679.474,564.107l3.121-0.876h3.005c4.71-0.123,9.111-0.291,13.492-0.491
		c15.973-0.8,33.654-3.027,51.295-6.945c34.39-14.87,65.989-33.259,94.06-54.566l-439.225-26.577
		c-70.622-4.286-143.649-8.712-213.283-26.716c-7.018-1.812-13.957-3.764-20.762-5.867
		c55.832,66.487,139.578,116.969,237.999,140.934c4.905-2.15,10.003-4.163,15.257-6.068l29.913-10.799l-2.501,25.577
		c0.078,16.239,7.327,31.938,20.452,44.29l4.536,4.286v40.956l18.669,11.876c41.756,26.545,83.475,53.092,125.212,79.653v-74.4
		h-19.308l-0.078-15.424v-41.986l4.09-4.532l0.466-0.43c13.182-12.428,20.433-28.204,20.433-44.428c0-0.875-0.039-1.751-0.098-2.612
		l-0.949-12.566l15.644-3.149C653.923,570.682,666.873,567.625,679.474,564.107z"/>
	<path id="XMLID_429_" style="fill:#FFFFFF;" d="M647.817,928.995c-6.417,2.918-13.298,5.422-20.568,7.48l-25.919,7.329v-75.045
		c-19.754-7.821-41.408-15.424-62.461-22.814c-27.683-9.725-56.296-19.772-81.517-30.602l-0.291,57.409h19.425l-0.407,70.975
		l-18.96,0.276c-25.492,0.369-45.731,1.706-65.601,4.333c-38.79,5.146-76.651,13.595-111.139,23.167l-0.019,0.015
		c-13.415,7.743-25.88,17.037-37.338,28.482h592.12C787.744,952.684,722.665,941.561,647.817,928.995z"/>
	<path id="XMLID_432_" style="fill:#FFFFFF;" d="M171.934,217.377c-4.245,13.289-3.975,25.993,0.795,37.746
		c8.878,21.86,33.635,40.91,67.927,52.262c32.821,10.862,70.158,14.072,106.274,17.176
		c141.788,12.135,283.595,24.272,425.382,36.424c44.724,3.826,90.978,7.788,134.712,21.922c11.36,3.687,22.332,8.082,32.588,13.12
		c26.365-44.827,41.078-94.816,41.078-147.541v-34.873H173.272C172.768,214.873,172.341,216.118,171.934,217.377z"/>
	<path id="XMLID_434_" style="fill:#FFFFFF;" d="M993.002,467.401c-10.972-24.273-34.177-43.721-61.996-57.547
		c-9.964-4.978-20.509-9.233-31.308-12.721c-40.923-13.227-85.53-17.113-129.478-20.877
		c-141.787-12.152-283.595-24.288-425.382-36.424c-37.919-3.257-76.457-6.621-111.662-18.266
		c-35.185-11.66-67.21-32.968-78.901-61.741c-6.145-15.163-5.99-30.986-1.143-46.21c8.142-25.563,29.543-49.406,56.548-65.459
		c27.741-16.484,60.155-26.163,93.304-33.429c15.257-3.333,31.231-2.903,46.798-4.67c6.74-0.754,12.971,3.287,13.046,8.681
		c0.178,12.853,7.717,25.216,26.967,34.979c61.683,31.276,132.553,61.739,162.275,43.324c0.002-0.002,0.005-0.003,0.007-0.005
		c28.221-19.851,3.175-80.576-24.546-134.296c-16.197-31.368-52.167-36.846-83.498-27.372c-3.056,0.924-5.783-0.526-6.094-3.106
		c-1.722-14.284-20.623-19.599-35.989-25.426C369.458-5.469,327.198,1.336,293.951,7.85c-43.91,8.572-86.461,21.922-127.093,37.515
		c-27.412,10.523-58.681,21.891-80.897,38.867C2.408,148.062-28.687,257.15,30.847,336.083
		c28.148,37.315,72.871,64.86,122.906,83.433c14.384,5.346,29.215,9.939,44.2,13.81c67.133,17.36,138.337,21.738,208.746,26.009
		l443.16,26.823c3.761,0.23,7.114,1.29,9.848,2.919c6.998,4.102,10.042,11.844,5.68,18.634
		c-28.42,44.228-99.992,67.118-165.128,70.36c-4.785,0.23-9.551,0.399-14.336,0.521c-0.007,0.002-0.012,0.002-0.02,0.003
		c-13.142,3.667-26.574,6.856-40.258,9.542c-0.032,0.006-0.054,0.029-0.053,0.055c0.058,1.122,0.115,2.245,0.115,3.382
		c0,20.671-9.396,39.622-24.972,54.306c-0.01,0.01-0.015,0.022-0.015,0.034v37.039c0,0.031,0.032,0.056,0.072,0.055
		c93.899-2.631,185.663-15.185,265.978-52.368C959.213,597.074,1021.326,530.003,993.002,467.401z"/>
	<path id="XMLID_435_" style="fill:#FFFFFF;" d="M620.802,863.367h-0.078v58.639c29.698-8.404,56.508-27.453,59.901-52.11
		c4.343-31.477-28.575-57.178-59.901-77.396c-1.183-0.768-2.366-1.521-3.548-2.274c-53.233-33.874-106.467-67.733-159.721-101.607
		c-1.047-0.66-2.073-1.321-3.12-1.981c-3.258-2.059-1.338-6.177,2.753-6.177c0.116,0,0.233,0.016,0.367,0.016v-34.581
		c-15.586-14.686-24.988-33.644-24.988-54.321c0-0.215,0-0.445,0.019-0.66c-55.482,20.063-100.418,60.159-92.334,106.538
		c8.201,46.963,64.42,77.043,117.303,100.393c2.463,1.091,4.905,2.166,7.347,3.226c47.302,20.509,107.302,38.084,155.921,58.285
		c0.308,0.138,0.64,0.261,0.948,0.4C623.807,860.633,623.186,863.152,620.802,863.367z"/>
	<path id="XMLID_437_" style="fill:#FFFFFF;" d="M456.779,928.642l0.214-39.958c-100.632,21.462-196.921,55.858-283.635,101.669
		c66.415-25.594,142.097-47.516,214.949-57.164C411.822,930.071,434.214,928.965,456.779,928.642z"/>
</g>
</svg>
