<?xml version="1.0" encoding="iso-8859-1"?>
<!-- Generator: Adobe Illustrator 25.0.1, SVG Export Plug-In . SVG Version: 6.00 Build 0)  -->
<svg version="1.1" id="&#xD1;&#xEB;&#xEE;&#xE9;_1" xmlns="http://www.w3.org/2000/svg" xmlns:xlink="http://www.w3.org/1999/xlink"
	 x="0px" y="0px" viewBox="0 0 1000 1000" style="enable-background:new 0 0 1000 1000;" xml:space="preserve">
<rect id="XMLID_1166_" style="display:none;" width="1000" height="1000"/>
<g id="XMLID_427_">
	<path id="XMLID_428_" style="fill:#FFFFFF;" d="M591.654,541.312l1.594-0.565h1.535c2.405-0.079,4.653-0.188,6.89-0.316
		c8.157-0.515,17.186-1.951,26.195-4.475c17.562-9.583,33.7-21.433,48.035-35.164l-224.305-17.127
		c-36.065-2.762-73.359-5.614-108.92-17.217c-3.584-1.168-7.128-2.426-10.603-3.781c28.512,42.846,71.28,75.378,121.542,90.822
		c2.505-1.385,5.109-2.683,7.791-3.911l15.276-6.959l-1.277,16.483c0.04,10.465,3.742,20.582,10.444,28.542l2.316,2.762V616.8
		l9.534,7.653c21.324,17.107,42.629,34.214,63.944,51.331v-47.945h-9.86l-0.04-9.94v-27.057l2.089-2.921l0.238-0.277
		c6.732-8.009,10.435-18.176,10.435-28.631c0-0.564-0.02-1.128-0.05-1.683l-0.485-8.098l7.989-2.029
		C578.606,545.55,585.219,543.58,591.654,541.312z"/>
	<path id="XMLID_429_" style="fill:#FFFFFF;" d="M575.487,776.458c-3.277,1.88-6.791,3.494-10.504,4.82l-13.236,4.723V737.64
		c-10.088-5.04-21.146-9.94-31.898-14.702c-14.137-6.267-28.75-12.741-41.629-19.721l-0.148,36.996h9.92l-0.208,45.738l-9.682,0.178
		c-13.018,0.238-23.354,1.099-33.501,2.792c-19.81,3.316-39.145,8.761-56.757,14.929l-0.01,0.01
		c-6.851,4.99-13.217,10.979-19.068,18.355h302.386C646.946,791.723,613.711,784.555,575.487,776.458z"/>
	<path id="XMLID_432_" style="fill:#FFFFFF;" d="M332.462,317.869c-2.168,8.564-2.03,16.751,0.406,24.325
		c4.534,14.087,17.177,26.364,34.689,33.679c16.761,7,35.829,9.069,54.272,11.069c72.409,7.82,144.827,15.642,217.235,23.473
		c22.84,2.465,46.461,5.019,68.795,14.127c5.801,2.376,11.405,5.208,16.642,8.455c13.464-28.888,20.978-61.103,20.978-95.08v-22.473
		H333.145C332.888,316.256,332.67,317.058,332.462,317.869z"/>
	<path id="XMLID_434_" style="fill:#FFFFFF;" d="M751.768,478.992c-5.603-15.642-17.454-28.175-31.66-37.085
		c-5.088-3.208-10.474-5.95-15.988-8.198c-20.899-8.524-43.679-11.028-66.122-13.454c-72.408-7.831-144.827-15.652-217.235-23.473
		c-19.364-2.099-39.046-4.267-57.024-11.771c-17.968-7.514-34.323-21.245-40.293-39.788c-3.138-9.771-3.059-19.968-0.584-29.779
		c4.158-16.474,15.087-31.839,28.878-42.184c14.167-10.623,30.72-16.86,47.649-21.543c7.791-2.148,15.949-1.871,23.899-3.01
		c3.442-0.486,6.624,2.118,6.662,5.594c0.091,8.283,3.941,16.25,13.772,22.542c31.501,20.155,67.693,39.787,82.871,27.919
		c0.001-0.001,0.002-0.002,0.003-0.003c14.412-12.793,1.621-51.925-12.535-86.544c-8.272-20.215-26.641-23.745-42.641-17.639
		c-1.561,0.595-2.953-0.339-3.112-2.002c-0.879-9.205-10.532-12.63-18.379-16.385c-16.593-7.93-38.174-3.544-55.153,0.654
		c-22.424,5.524-44.154,14.127-64.904,24.176c-13.999,6.782-29.967,14.107-41.313,25.047
		c-42.669,41.134-58.549,111.434-28.146,162.301c14.375,24.047,37.214,41.797,62.766,53.767c7.346,3.445,14.92,6.405,22.572,8.9
		c34.284,11.187,70.646,14.008,106.603,16.761l226.314,17.285c1.92,0.148,3.633,0.831,5.029,1.881
		c3.574,2.643,5.128,7.633,2.901,12.009c-14.513,28.502-51.064,43.253-84.328,45.342c-2.444,0.148-4.878,0.257-7.321,0.336
		c-0.003,0.001-0.006,0.001-0.01,0.002c-6.711,2.363-13.571,4.418-20.559,6.149c-0.016,0.004-0.028,0.018-0.027,0.035
		c0.029,0.723,0.058,1.447,0.058,2.18c0,13.321-4.798,25.534-12.753,34.997c-0.005,0.006-0.008,0.014-0.008,0.022v23.869
		c0,0.02,0.016,0.036,0.037,0.035c47.953-1.696,94.815-9.786,135.831-33.748C734.513,562.558,766.232,519.335,751.768,478.992z"/>
	<path id="XMLID_435_" style="fill:#FFFFFF;" d="M561.692,734.165h-0.04v37.789c15.166-5.416,28.858-17.691,30.59-33.581
		c2.218-20.285-14.593-36.847-30.59-49.876c-0.604-0.495-1.208-0.98-1.812-1.465c-27.185-21.829-54.371-43.649-81.567-65.479
		c-0.535-0.425-1.059-0.851-1.593-1.277c-1.664-1.327-0.684-3.98,1.406-3.98c0.059,0,0.119,0.01,0.188,0.01V594.02
		c-7.96-9.464-12.761-21.681-12.761-35.006c0-0.139,0-0.287,0.01-0.425c-28.334,12.93-51.282,38.768-47.154,68.656
		c4.188,30.265,32.898,49.649,59.905,64.697c1.258,0.703,2.505,1.396,3.752,2.079c24.156,13.217,54.797,24.542,79.626,37.561
		c0.157,0.089,0.327,0.168,0.484,0.258C563.226,732.403,562.909,734.026,561.692,734.165z"/>
	<path id="XMLID_437_" style="fill:#FFFFFF;" d="M477.927,776.23l0.109-25.75c-51.391,13.831-100.564,35.997-144.847,65.518
		c33.917-16.494,72.567-30.621,109.771-36.838C454.969,777.151,466.404,776.438,477.927,776.23z"/>
</g>
</svg>
